<svg viewBox="0 0 16 16" fill="currentColor" height="1em">
<path d="M14.9008 6.94076C14.6368 5.35676 13.8624 4.04956 12.5872 3.08156C10.7248 1.66876 8.6544 1.34876 6.47681 2.18876C4.36161 3.00476 3.07841 4.58716 2.59521 6.80636C2.54241 7.05116 2.51521 7.30076 2.47361 7.56956C2.26721 7.34716 2.07682 7.14076 1.88482 6.93276C1.67522 6.70716 1.36482 6.68156 1.15842 6.87196C0.947218 7.06716 0.945618 7.36476 1.16162 7.59836C1.60322 8.07516 2.04482 8.55196 2.48801 9.02556C2.77121 9.32796 3.01761 9.33596 3.32001 9.05596C3.78401 8.62556 4.24801 8.19516 4.71041 7.76316C4.76641 7.71036 4.82241 7.65436 4.86401 7.58876C4.98881 7.38876 4.94241 7.12316 4.76321 6.97116C4.57441 6.80956 4.31681 6.80476 4.12481 6.97116C3.92161 7.14876 3.72641 7.33436 3.52641 7.51676L3.48161 7.49756C3.51201 7.30076 3.53441 7.10396 3.57601 6.90876C4.16801 4.14876 6.8048 2.35196 9.5872 2.80796C12.136 3.22716 14.0048 5.39836 14.0096 7.97756C14.0128 9.51356 13.4624 10.8336 12.3248 11.8736C10.9136 13.1648 9.2544 13.56 7.4 13.1184C6.48961 12.9024 5.71201 12.432 5.03841 11.7856C4.79521 11.552 4.50561 11.5488 4.30081 11.7584C4.09761 11.968 4.11521 12.2624 4.36001 12.4928C5.81761 13.8736 7.5456 14.4608 9.5408 14.2192C11.1312 14.0272 12.4544 13.304 13.4864 12.0896C14.752 10.6016 15.2224 8.87036 14.9008 6.94076ZM8.984 4.71996C8.984 4.64316 8.9808 4.56476 8.968 4.48796C8.9216 4.21596 8.6528 4.04156 8.3872 4.10556C8.1376 4.16636 8 4.34876 8 4.63356C7.9984 5.85596 8 7.07836 8 8.29916C8 8.70876 8.176 8.89596 8.5808 8.89916C9.3312 8.90396 10.08 8.90076 10.8304 8.90076C10.8688 8.90076 10.9072 8.89596 10.9456 8.89116C11.24 8.85756 11.4288 8.65436 11.4144 8.39036C11.3984 8.11036 11.1904 7.91836 10.896 7.91836C10.3232 7.91676 9.752 7.91836 9.1792 7.91836H8.9824V7.70396C8.984 6.70876 8.984 5.71356 8.984 4.71996Z" fill="#635D49"/>
</svg>
