<svg viewBox="0 0 24 24" fill="currentColor" height="1em">
  <path d="M20.45 10.21l.487 1.676-3.732 1.055s0 2.244-1.812 3.136c-1.81.893-3.218.137-3.218.137l-.225-.649 2.687-.73.595-2.3-1.732-1.703-2.488.753-.216-.59s1.163-2.57 4.598-1.11c0 0 1.083.676 1.325 1.271l3.73-.947zm.487-.127l.595-.17.478 1.713-.623.187-.45-1.73zm.21-.075l.385-.096.478 1.713-.623.188-.162-.573.248-.097-.326-1.135zm-1.11.307l.412-.105.487 1.677-3.732 1.054s-.04 1.96-1.338 2.846c-1.298.886-2.759.859-3.691.428l-.104-.3s2.539.597 3.795-1.31c.758-1.258.744-2.164.744-2.164l3.746-1.013-.319-1.113zm-9.242.679l2.191-.636.514.474-2.489.752-.216-.59zm-7.723 1.19l.44 1.69 3.745-1.004s1.15 1.928 3.163 1.767c2.014-.16 2.834-1.529 2.834-1.529l-.139-.674-2.681.748-1.687-1.67.615-2.35 2.523-.626-.117-.618S9.455 6.305 7.251 9.317c0 0-.583 1.135-.488 1.77l-3.691 1.096zm-.484.14l-.598.157.465 1.716.632-.156-.499-1.717zm-.218.042l-.38.115.465 1.716.632-.156-.153-.576-.264.043-.3-1.142zm1.11-.303l-.408.12.44 1.69 3.745-1.003s1.038 1.661 2.607 1.759c1.568.097 2.81-.672 3.39-1.521l-.063-.311s-1.876 1.811-3.932.817c-1.294-.694-1.745-1.48-1.745-1.48L3.775 13.18l-.295-1.117zm8.288-4.146l-2.207.575-.199.669 2.523-.625-.117-.619z" />
</svg>
